HIERARCHY
ROOT Hips
{
	OFFSET -3.958830 18.904000 13.208200
	CHANNELS 6 Xposition Yposition Zposition Zrotation Yrotation Xrotation 
	JOINT LHipJoint
	{
		OFFSET 0.000000 0.000000 0.000000
		CHANNELS 3 Zrotation Yrotation Xrotation
		JOINT LeftUpLeg
		{
			OFFSET 1.800000 -1.400000 0.085000
			CHANNELS 3 Zrotation Yrotation Xrotation
			JOINT LeftLeg
			{
				OFFSET 2.215000 -6.000000 0.000000
				CHANNELS 3 Zrotation Yrotation Xrotation
				JOINT LeftFoot
				{
					OFFSET 2.500000 -6.900000 0.000000
					CHANNELS 3 Zrotation Yrotation Xrotation
					JOINT LeftToeBase
					{
						OFFSET 0.200000 -0.500000 1.950000
						CHANNELS 3 Zrotation Yrotation Xrotation
						End Site
						{
							OFFSET 0.000000 0.000000 0.000000
						}
					}
				}
			}
		}
	}
	JOINT RHipJoint
	{
		OFFSET 0.000000 0.000000 0.000000
		CHANNELS 3 Zrotation Yrotation Xrotation
		JOINT RightUpLeg
		{
			OFFSET -1.800000 -1.400000 0.085000
			CHANNELS 3 Zrotation Yrotation Xrotation
			JOINT RightLeg
			{
				OFFSET -2.215000 -6.000000 0.000000
				CHANNELS 3 Zrotation Yrotation Xrotation
				JOINT RightFoot
				{
					OFFSET -2.500000 -6.900000 0.000000
					CHANNELS 3 Zrotation Yrotation Xrotation
					JOINT RightToeBase
					{
						OFFSET -0.200000 -0.500000 1.950000
						CHANNELS 3 Zrotation Yrotation Xrotation
						End Site
						{
							OFFSET 0.000000 0.000000 0.000000
						}
					}
				}
			}
		}
	}
	JOINT LowerBack
	{
		OFFSET 0.000000 0.000000 0.000000
		CHANNELS 3 Zrotation Yrotation Xrotation
		JOINT Spine
		{
			OFFSET -0.087000 1.940000 -0.288900
			CHANNELS 3 Zrotation Yrotation Xrotation
			JOINT Spine1
			{
				OFFSET 0.000000 1.950000 0.060000
				CHANNELS 3 Zrotation Yrotation Xrotation
				JOINT Neck
				{
					OFFSET 0.000000 0.000000 0.000000
					CHANNELS 3 Zrotation Yrotation Xrotation
					JOINT Neck1
					{
						OFFSET 0.000000 1.600000 0.340000
						CHANNELS 3 Zrotation Yrotation Xrotation
						JOINT Head
						{
							OFFSET 0.000000 1.667000 -0.240000
							CHANNELS 3 Zrotation Yrotation Xrotation
							End Site
							{
								OFFSET 0.000000 0.000000 0.000000
							}
						}
					}
				}
				JOINT LeftShoulder
				{
					OFFSET 0.000000 0.000000 0.000000
					CHANNELS 3 Zrotation Yrotation Xrotation
					JOINT LeftArm
					{
						OFFSET 2.700000 1.550000 -0.730000
						CHANNELS 3 Zrotation Yrotation Xrotation
						JOINT LeftForeArm
						{
							OFFSET 5.450000 0.000000 0.000000
							CHANNELS 3 Zrotation Yrotation Xrotation
							JOINT LeftHand
							{
								OFFSET 3.450000 0.000000 0.000000
								CHANNELS 3 Zrotation Yrotation Xrotation
								JOINT LeftHandIndex1
								{
									OFFSET 0.750000 0.000000 0.000000
									CHANNELS 3 Zrotation Yrotation Xrotation
									End Site
									{
										OFFSET 0.000000 0.000000 0.000000
									}
								}
							}
						}
					}
				}
				JOINT RightShoulder
				{
					OFFSET 0.000000 0.000000 0.000000
					CHANNELS 3 Zrotation Yrotation Xrotation
					JOINT RightArm
					{
						OFFSET -2.700000 1.550000 -0.730000
						CHANNELS 3 Zrotation Yrotation Xrotation
						JOINT RightForeArm
						{
							OFFSET -5.450000 0.000000 0.000000
							CHANNELS 3 Zrotation Yrotation Xrotation
							JOINT RightHand
							{
								OFFSET -3.450000 0.000000 0.000000
								CHANNELS 3 Zrotation Yrotation Xrotation
								JOINT RightHandIndex1
								{
									OFFSET -0.750000 0.000000 0.000000
									CHANNELS 3 Zrotation Yrotation Xrotation
									End Site
									{
										OFFSET 0.000000 0.000000 0.000000
									}
								}
							}
						}
					}
				}
			}
		}
	}
}
MOTION
Frames: 11
Frame Time: 0.016667
0.155330 16.953680 -1.202270 -4.531660 -6.113380 4.780378 -14.973573 12.610713 2.835600 5.559334 -3.028870 -21.738315 -8.844527 7.902877 21.784056 -0.595230 5.054007 2.966494 0.305550 -0.078900 0.246370 18.566192 -10.552022 3.328099 -5.930659 7.399710 -29.560319 5.376118 -11.297475 51.337337 -0.782721 -8.230899 1.673463 0.174710 0.602780 0.137150 -4.236187 -0.799521 -7.320978 11.281440 -0.370489 8.007855 -5.270996 0.362219 6.016859 1.146600 -2.596435 -6.454078 -5.119787 3.677861 28.480749 -2.738480 2.346120 0.404820 -10.702035 0.451665 0.361774 -38.964767 -12.414010 0.460817 -19.905852 -48.483500 7.852274 -3.996798 3.258944 0.202970 0.469030 -0.448590 0.201890 8.168820 1.497396 3.069406 48.617138 10.632759 -3.532344 22.029846 52.930828 7.979345 1.788776 -1.885859 -0.383180 0.295910 0.045930 -0.214070 
0.149750 16.964780 -1.228570 -4.616906 -6.147462 4.555666 -14.973033 12.562895 2.826144 5.791041 -3.044121 -22.009296 -8.874698 8.043643 22.245028 -0.601055 5.132391 2.929790 0.315220 -0.074630 0.272640 18.576458 -10.495308 3.404472 -6.193035 7.748875 -30.039606 5.635956 -11.916256 53.125153 -0.872269 -8.592974 1.556146 0.180840 0.591160 0.137040 -4.254686 -0.781816 -7.387265 11.472582 -0.335866 8.428578 -5.249063 0.429680 6.194134 1.174153 -2.488798 -6.487429 -4.975394 3.459582 28.815104 -3.098790 2.387100 0.091220 -10.053730 0.334406 0.314594 -38.129695 -13.248782 0.746318 -18.431815 -50.383398 7.668651 -3.990172 3.254215 0.211410 0.467620 -0.442180 0.191210 7.464504 1.571170 3.123809 48.048489 11.344706 -3.385493 20.566290 54.991462 7.833030 1.758324 -1.892691 -0.386080 0.301360 0.044680 -0.227580 
0.140480 16.982730 -1.278690 -4.776354 -6.111309 4.164421 -14.976407 12.476887 2.828857 6.195896 -3.127884 -22.730401 -8.916726 8.341002 23.336448 -0.623830 5.316467 2.844646 0.331680 -0.062090 0.289620 18.592781 -10.385163 3.518402 -6.701872 8.265252 -30.773214 6.168776 -13.050140 55.946025 -1.022472 -9.200076 1.365218 0.201810 0.587780 0.133390 -4.280824 -0.789024 -7.495112 11.768022 -0.365476 9.122742 -5.102031 0.457526 6.561436 1.099811 -2.420256 -6.530953 -4.929211 3.456816 29.345209 -3.065610 2.291570 -0.553030 -8.933479 -0.019890 0.303175 -36.975663 -14.683408 1.178998 -15.267255 -52.947444 6.741314 -3.977407 3.237643 0.233720 0.465880 -0.440110 0.183150 6.499672 1.902582 3.113768 46.627800 12.782977 -3.153085 17.192336 57.880493 6.957638 1.693923 -1.886990 -0.401200 0.321990 0.053970 -0.243960 
0.130620 16.991880 -1.338770 -4.986242 -6.214857 4.119909 -14.977913 12.306743 2.846771 6.772711 -3.274570 -23.943534 -9.175083 8.739153 24.495818 -0.639606 5.549036 2.746119 0.361830 -0.027260 0.316600 18.628396 -10.241956 3.652064 -7.257591 8.867696 -31.959394 6.745841 -14.378092 59.009805 -1.192102 -9.893923 1.147413 0.241150 0.596350 0.141940 -4.343332 -0.707950 -7.590991 12.336642 -0.352293 9.409009 -5.290748 0.498637 6.894405 1.139491 -2.255088 -6.343673 -4.575475 3.368666 29.187896 -3.487870 2.431190 -0.982900 -7.422545 0.146099 0.016821 -35.415880 -16.642780 1.951853 -10.474289 -55.810023 5.036061 -3.981947 3.237045 0.228500 0.487100 -0.444990 0.183360 4.898921 1.599407 2.941201 45.310152 14.479570 -2.576230 12.567593 60.890519 5.310897 1.609310 -1.913353 -0.409160 0.338150 0.052100 -0.254720 
0.119780 16.997310 -1.403420 -5.078910 -6.478351 4.358302 -14.985576 12.106883 2.895149 7.259389 -3.451931 -25.422538 -9.594043 9.192811 25.576058 -0.656431 5.814963 2.644553 0.375200 0.003270 0.314630 18.665481 -10.101759 3.754123 -7.716809 9.412940 -33.208555 6.882104 -15.293539 61.567059 -1.311175 -10.461159 0.973516 0.291070 0.638650 0.150850 -4.401347 -0.596032 -7.654135 12.781978 -0.187424 9.299113 -5.323683 0.611604 7.062342 1.086452 -2.105683 -5.910301 -4.176445 3.373848 28.544403 -3.950090 2.601120 -0.906660 -6.055468 0.571807 -0.461962 -33.453050 -18.882284 3.010495 -4.539492 -58.179716 2.558941 -4.019173 3.229100 0.195180 0.537210 -0.472840 0.190710 3.628649 1.060149 2.525690 43.262386 16.347846 -1.719779 6.802255 63.482141 2.850758 1.511390 -1.932519 -0.427340 0.365080 0.061860 -0.253570 
0.112530 17.004050 -1.472760 -5.117683 -6.814631 4.610340 -14.989930 11.924891 2.976188 7.728242 -3.620548 -26.868829 -10.122382 9.622293 26.382264 -0.671455 6.059131 2.552601 0.390120 0.032230 0.316880 18.696087 -10.014609 3.796318 -8.118825 9.709866 -34.023488 6.877109 -15.738169 62.835458 -1.362997 -10.764359 0.882036 0.337240 0.675430 0.162470 -4.453550 -0.461719 -7.698265 13.252312 0.039051 9.114716 -5.374317 0.792404 7.305990 1.097318 -1.945247 -5.555314 -3.781844 3.286052 28.003615 -4.671900 2.846530 -0.697360 -4.838711 0.563886 -0.865870 -31.096807 -21.009794 3.850308 3.022518 -59.929619 -1.046414 -4.056208 3.196257 0.160530 0.589420 -0.500480 0.198680 2.385141 0.974258 2.172458 40.855980 18.179505 -1.134125 -1.171209 65.409403 -1.173425 1.402310 -1.915127 -0.441870 0.383890 0.067900 -0.256220 
0.101280 17.016520 -1.549110 -4.965785 -7.352364 4.734615 -14.996907 11.788916 3.088874 8.229917 -3.736923 -28.115589 -10.875540 10.093356 26.954021 -0.653216 6.273867 2.455486 0.427210 0.090100 0.333040 18.710402 -9.977362 3.776049 -8.372363 9.821462 -34.303264 6.604441 -15.483194 62.798581 -1.348822 -10.740853 0.872495 0.381950 0.677660 0.178890 -4.474391 -0.354123 -7.731468 13.344530 0.316277 9.161139 -5.294394 1.019110 7.611006 1.003877 -1.880821 -5.306699 -3.587912 3.474526 27.676732 -4.825610 3.077440 -0.906550 -3.941798 0.054395 -1.056230 -27.918872 -22.286780 3.978622 12.293389 -61.365709 -5.845986 -4.058372 3.153411 0.127640 0.611020 -0.502730 0.204110 1.681701 1.522361 1.789086 37.778475 19.863814 -0.972767 -11.225624 66.406807 -6.584915 1.311149 -1.837081 -0.424560 0.378420 0.057440 -0.250920 
0.083890 17.022590 -1.625660 -4.696059 -7.918274 5.113231 -15.010682 11.660984 3.241666 8.843801 -3.868030 -29.562232 -11.754536 10.531913 27.246001 -0.653583 6.481319 2.366924 0.467730 0.150190 0.343620 18.715034 -9.975033 3.684421 -8.398990 9.673246 -34.180988 6.265622 -14.698475 61.228567 -1.256699 -10.414330 0.953924 0.434980 0.694460 0.195950 -4.471923 -0.245179 -7.722423 13.162114 0.656872 8.812643 -5.093490 1.267917 7.918390 0.877266 -1.815806 -5.016905 -3.383996 3.700031 27.212313 -4.884230 3.221920 -1.140600 -2.850515 -0.283637 -1.235315 -25.108017 -23.487802 4.135410 22.428139 -61.147804 -10.972359 -4.067314 3.068970 0.100370 0.639700 -0.509730 0.219380 0.866159 1.920240 1.307132 34.770164 21.536431 -0.547759 -21.231140 65.823503 -11.726033 1.212887 -1.730710 -0.417840 0.385500 0.048130 -0.244460 
0.064010 17.029580 -1.706990 -4.243743 -8.479390 5.451651 -15.042180 11.562767 3.456391 9.571720 -4.038271 -31.259711 -12.656378 11.128021 27.999597 -0.634287 6.776895 2.239656 0.507650 0.205630 0.369040 18.696715 -9.999684 3.518973 -8.214698 9.287796 -33.624770 5.357459 -13.322210 58.820926 -1.114645 -9.837545 1.107038 0.479020 0.686140 0.206170 -4.407200 -0.193903 -7.711427 12.475899 1.025950 8.582107 -4.651644 1.579448 8.309164 0.805252 -1.731872 -4.893605 -3.198592 3.666747 26.876437 -5.164720 3.312460 -1.710670 -2.188432 -1.017196 -1.234354 -22.036636 -24.036588 3.807560 33.372670 -60.291380 -16.345326 -4.055828 2.930581 0.090830 0.647930 -0.500720 0.224910 0.394778 2.770561 0.982026 31.368957 22.695732 -0.450577 -31.493191 64.189584 -16.638278 1.131866 -1.586190 -0.410100 0.389110 0.034830 -0.247220 
0.045060 17.033940 -1.791300 -3.695601 -9.120948 5.819153 -15.078785 11.427042 3.743347 10.642706 -4.208945 -33.291691 -13.959511 12.054198 29.131073 -0.596305 7.252494 2.050119 0.529770 0.230520 0.384360 18.678277 -10.021114 3.310730 -8.063268 8.801544 -32.773746 4.442958 -11.961074 56.051369 -0.950124 -9.214925 1.282676 0.511150 0.689880 0.212600 -4.338386 -0.129537 -7.718939 11.788986 1.425161 8.450220 -4.311363 1.962720 8.495039 0.696628 -1.743610 -4.769126 -3.160631 3.558389 26.398018 -5.405480 3.196660 -1.997410 -1.857127 -1.743016 -1.297679 -18.541573 -24.556422 3.582171 42.042253 -58.128053 -19.900900 -4.075887 2.816723 0.083500 0.662900 -0.510170 0.221070 0.293656 3.711198 0.760495 27.594508 23.639684 -0.215317 -40.697156 61.411041 -20.435575 1.076702 -1.472546 -0.415360 0.394400 0.038150 -0.256010 
0.030010 17.038300 -1.882240 -3.233866 -9.994355 5.892136 -15.116161 11.280516 4.090680 12.236356 -4.220559 -35.323695 -15.670737 13.448212 30.821018 -0.494012 7.929055 1.793659 0.543420 0.249400 0.390000 18.658758 -10.037284 3.071999 -7.987152 8.277524 -31.382833 3.811232 -10.855617 53.206770 -0.810921 -8.597280 1.472751 0.526580 0.679790 0.198250 -4.270847 -0.084132 -7.778277 11.340934 1.795092 8.792059 -4.055900 2.446696 8.899110 0.578914 -1.945231 -4.955918 -3.530322 3.470163 26.449541 -5.159640 2.829780 -2.643860 -1.820075 -3.024968 -1.044345 -14.854318 -24.620580 2.917128 50.503886 -54.458652 -22.724842 -4.073835 2.701106 0.100710 0.644300 -0.501040 0.221840 0.460155 5.376551 0.850935 23.051995 24.292143 -0.363710 -48.467960 57.344509 -22.987087 1.092895 -1.405288 -0.422310 0.414330 0.037010 -0.258410 
